<svg width="375" height="812" viewBox="0 0 375 812" fill="none" xmlns="http://www.w3.org/2000/svg">
<g clip-path="url(#clip0_258_1049)">
<rect width="375" height="812" fill="white"/>
<path d="M37.6641 26.6436C35.5244 26.6436 34 28.1064 34 30.1094V30.123C34 31.9961 35.3262 33.377 37.2197 33.377C38.5732 33.377 39.4346 32.6865 39.7969 31.9072H39.9336C39.9336 31.9824 39.9268 32.0576 39.9268 32.1328C39.8516 34.0195 39.1885 35.5508 37.623 35.5508C36.7549 35.5508 36.1465 35.0996 35.8867 34.4092L35.8662 34.3408H34.1299L34.1436 34.416C34.458 35.9268 35.8115 37 37.623 37C40.1045 37 41.6016 35.0312 41.6016 31.709V31.6953C41.6016 28.1406 39.7695 26.6436 37.6641 26.6436ZM37.6572 32.0234C36.5361 32.0234 35.7227 31.2031 35.7227 30.0615V30.0479C35.7227 28.9473 36.5908 28.0791 37.6777 28.0791C38.7715 28.0791 39.626 28.9609 39.626 30.0889V30.1025C39.626 31.2168 38.7715 32.0234 37.6572 32.0234Z" fill="black"/>
<path d="M44.4251 30.3623C45.054 30.3623 45.512 29.8838 45.512 29.2822C45.512 28.6738 45.054 28.2021 44.4251 28.2021C43.803 28.2021 43.3382 28.6738 43.3382 29.2822C43.3382 29.8838 43.803 30.3623 44.4251 30.3623ZM44.4251 35.4346C45.054 35.4346 45.512 34.9629 45.512 34.3545C45.512 33.7461 45.054 33.2744 44.4251 33.2744C43.803 33.2744 43.3382 33.7461 43.3382 34.3545C43.3382 34.9629 43.803 35.4346 44.4251 35.4346Z" fill="black"/>
<path d="M52.0337 36.7539H53.7222V34.8604H55.0484V33.4043H53.7222V26.8896H51.2271C49.8873 28.9268 48.4859 31.1963 47.2076 33.418V34.8604H52.0337V36.7539ZM48.8482 33.4453V33.3428C49.8052 31.668 50.9468 29.8428 51.9586 28.2979H52.0611V33.4453H48.8482Z" fill="black"/>
<path d="M58.8563 36.7539H60.62V26.8896H58.8631L56.286 28.7012V30.3623L58.7401 28.626H58.8563V36.7539Z" fill="black"/>
<path fill-rule="evenodd" clip-rule="evenodd" d="M310.4 25.6665H309.4C308.847 25.6665 308.4 26.1142 308.4 26.6665V35.3332C308.4 35.8855 308.847 36.3332 309.4 36.3332H310.4C310.952 36.3332 311.4 35.8855 311.4 35.3332V26.6665C311.4 26.1142 310.952 25.6665 310.4 25.6665ZM304.733 27.9998H305.733C306.285 27.9998 306.733 28.4475 306.733 28.9998V35.3331C306.733 35.8854 306.285 36.3331 305.733 36.3331H304.733C304.181 36.3331 303.733 35.8854 303.733 35.3331V28.9998C303.733 28.4475 304.181 27.9998 304.733 27.9998ZM301.066 30.3333H300.066C299.514 30.3333 299.066 30.781 299.066 31.3333V35.3333C299.066 35.8856 299.514 36.3333 300.066 36.3333H301.066C301.619 36.3333 302.066 35.8856 302.066 35.3333V31.3333C302.066 30.781 301.619 30.3333 301.066 30.3333ZM296.4 32.3333H295.4C294.847 32.3333 294.4 32.781 294.4 33.3333V35.3333C294.4 35.8856 294.847 36.3333 295.4 36.3333H296.4C296.952 36.3333 297.4 35.8856 297.4 35.3333V33.3333C297.4 32.781 296.952 32.3333 296.4 32.3333Z" fill="black"/>
<path fill-rule="evenodd" clip-rule="evenodd" d="M324.036 27.7947C326.252 27.7948 328.383 28.6462 329.989 30.173C330.11 30.2909 330.303 30.2894 330.423 30.1697L331.579 29.003C331.639 28.9423 331.673 28.86 331.672 28.7744C331.672 28.6889 331.637 28.607 331.576 28.547C327.361 24.5074 320.711 24.5074 316.496 28.547C316.435 28.607 316.4 28.6888 316.4 28.7744C316.399 28.86 316.433 28.9422 316.493 29.003L317.649 30.1697C317.768 30.2896 317.962 30.2911 318.083 30.173C319.689 28.6461 321.82 27.7947 324.036 27.7947ZM324.036 31.5902C325.254 31.5901 326.428 32.0427 327.33 32.8599C327.452 32.9759 327.645 32.9734 327.764 32.8542L328.918 31.6876C328.979 31.6264 329.013 31.5433 329.012 31.4571C329.011 31.3708 328.976 31.2885 328.914 31.2286C326.165 28.6722 321.909 28.6722 319.161 31.2286C319.099 31.2885 319.064 31.3709 319.063 31.4571C319.062 31.5434 319.096 31.6264 319.157 31.6876L320.311 32.8542C320.43 32.9734 320.623 32.9759 320.745 32.8599C321.647 32.0432 322.82 31.5907 324.036 31.5902ZM326.349 34.144C326.351 34.2305 326.317 34.3139 326.255 34.3745L324.258 36.3902C324.2 36.4494 324.12 36.4828 324.036 36.4828C323.953 36.4828 323.873 36.4494 323.815 36.3902L321.817 34.3745C321.755 34.3139 321.721 34.2305 321.723 34.1439C321.725 34.0574 321.763 33.9755 321.827 33.9175C323.102 32.8386 324.97 32.8386 326.246 33.9175C326.31 33.9756 326.348 34.0575 326.349 34.144Z" fill="black"/>
<path opacity="0.4" fill-rule="evenodd" clip-rule="evenodd" d="M339.339 26.3333H356.005C356.926 26.3333 357.672 27.0794 357.672 27.9999V33.9999C357.672 34.9204 356.926 35.6666 356.005 35.6666H339.339C338.418 35.6666 337.672 34.9204 337.672 33.9999V27.9999C337.672 27.0794 338.418 26.3333 339.339 26.3333ZM336.672 27.9999C336.672 26.5272 337.866 25.3333 339.339 25.3333H356.005C357.478 25.3333 358.672 26.5272 358.672 27.9999V33.9999C358.672 35.4727 357.478 36.6666 356.005 36.6666H339.339C337.866 36.6666 336.672 35.4727 336.672 33.9999V27.9999ZM361 31C361 31.8731 360.477 32.6612 359.672 33V29C360.477 29.3387 361 30.1268 361 31Z" fill="black"/>
<rect x="338.672" y="27.3333" width="18" height="7.33333" rx="1.33333" fill="black"/>
<rect x="-1" y="52" width="375" height="760" fill="white"/>
<g opacity="0.3">
<mask id="mask0_258_1049" style="mask-type:alpha" maskUnits="userSpaceOnUse" x="-58" y="131" width="131" height="224">
<path d="M66.262 236.83L-39.0122 131L-58 150.088L20.3548 229.098L34.0567 242.87L20.3548 255.918L-58 334.928L-39.0122 354.016L66.262 248.186L72.0305 242.629L66.262 236.83Z" fill="#EE7131"/>
</mask>
<g mask="url(#mask0_258_1049)">
<rect x="-19.2145" y="40.252" width="406.252" height="405.755" fill="#6CDDB8"/>
</g>
</g>
</g>
<defs>
<clipPath id="clip0_258_1049">
<rect width="375" height="812" fill="white"/>
</clipPath>
</defs>
</svg>
